<?xml version="1.0" encoding="UTF-8" standalone="no"?>
<!-- Created with Inkscape (http://www.inkscape.org/) -->

<svg
   xmlns:dc="http://purl.org/dc/elements/1.1/"
   xmlns:cc="http://creativecommons.org/ns#"
   xmlns:rdf="http://www.w3.org/1999/02/22-rdf-syntax-ns#"
   xmlns:svg="http://www.w3.org/2000/svg"
   xmlns="http://www.w3.org/2000/svg"
   xmlns:sodipodi="http://sodipodi.sourceforge.net/DTD/sodipodi-0.dtd"
   xmlns:inkscape="http://www.inkscape.org/namespaces/inkscape"
   width="2049.0945"
   height="2049.0945"
   id="svg3131"
   version="1.1"
   inkscape:version="0.92.3 (2405546, 2018-03-11)"
   sodipodi:docname="6mm.svg">
  <defs
     id="defs3133" />
  <sodipodi:namedview
     id="base"
     pagecolor="#ffffff"
     bordercolor="#666666"
     borderopacity="1.0"
     inkscape:pageopacity="0.0"
     inkscape:pageshadow="2"
     inkscape:zoom="0.31506305"
     inkscape:cx="1364.1283"
     inkscape:cy="1014.0023"
     inkscape:document-units="mm"
     inkscape:current-layer="layer1"
     showgrid="false"
     units="mm"
     fit-margin-top="0"
     fit-margin-left="0"
     fit-margin-right="0"
     fit-margin-bottom="0"
     inkscape:window-width="1680"
     inkscape:window-height="1001"
     inkscape:window-x="0"
     inkscape:window-y="25"
     inkscape:window-maximized="1" />
  <metadata
     id="metadata3136">
    <rdf:RDF>
      <cc:Work
         rdf:about="">
        <dc:format>image/svg+xml</dc:format>
        <dc:type
           rdf:resource="http://purl.org/dc/dcmitype/StillImage" />
        <dc:title />
      </cc:Work>
    </rdf:RDF>
  </metadata>
  <g
     inkscape:label="Calque 1"
     inkscape:groupmode="layer"
     id="layer1"
     transform="translate(20.433915,1337.1223)">
    <g
       transform="translate(-99.8629,-221.41142)"
       id="layer1-5"
       inkscape:label="Calque 1" />
    <path
       sodipodi:nodetypes="cccccccccccc"
       id="Shape2DView_nwe0000"
       d="m 97.026711,594.51152 -24.80314,0 0,-21.2598 -46.062999,0 0,21.2598 -46.062991,0 0,-1814.17322 46.062991,0 0,21.2599 46.062999,0 0,-21.2599 24.80314,0"
       style="fill:none;stroke:#0000ff;stroke-width:0.35433072;stroke-miterlimit:4;stroke-dasharray:none"
       inkscape:connector-curvature="0" />
    <path
       style="fill:none;stroke:#ff0000;stroke-width:0.35433072;stroke-linecap:butt;stroke-linejoin:miter;stroke-miterlimit:4;stroke-opacity:1;stroke-dasharray:none"
       d="m 118.28622,1273.8932 0,39.9083"
       id="path3463"
       inkscape:connector-curvature="0"
       transform="translate(0,-1073.622)"
       sodipodi:nodetypes="cc" />
    <path
       sodipodi:nodetypes="cccccccccccc"
       id="Shape2DView_nwe0000-5"
       d="m 2096.5707,594.51164 h 24.8031 v -21.2598 h 46.063 v 21.2598 h 46.063 V -1219.6616 h -46.063 v 21.2599 h -46.063 v -21.2599 h -24.8031"
       style="fill:none;stroke:#0000ff;stroke-width:0.35433072;stroke-miterlimit:4;stroke-dasharray:none"
       inkscape:connector-curvature="0" />
    <path
       sodipodi:nodetypes="ccccccc"
       inkscape:connector-curvature="0"
       d="m 2075.3109,-1336.5907 -1957.02443,-10e-5 v 46.063 H 97.026671 v 46.063 h 21.259799 v 24.8031"
       style="fill:none;stroke:#0000ff;stroke-width:0.35433072;stroke-miterlimit:4;stroke-dasharray:none"
       id="Shape2DView_nwe0047-9" />
    <path
       inkscape:connector-curvature="0"
       id="path985"
       d="m 3949.6612,424.84042 c 0,-9.78458 -7.932,-17.71654 -17.7166,-17.71654 -9.7845,0 -17.7165,7.93196 -17.7165,17.71654 0,9.78457 7.932,17.71653 17.7165,17.71653 9.7846,0 17.7166,-7.93196 17.7166,-17.71653 z"
       style="fill:none;stroke:#ff0000;stroke-width:0.35433072;stroke-miterlimit:4;stroke-dasharray:none" />
    <path
       id="path1755"
       style="fill:none;stroke:#0000ff;stroke-width:0.35433072;stroke-miterlimit:4;stroke-dasharray:none"
       d="m 1795.5761,594.51158 v -21.25984 h -93.245 v 21.25984 h -93.2449 v -21.25984 h -93.2449 v 21.25984 h -93.2449 v -21.25984 h -93.2449 v 21.25984 h -93.245 v -21.25984 h -93.2449 v 21.25984 h -93.2449 v -21.25984 h -93.2449 v 21.25984 h -93.24492 v -21.25984 h -93.24493 v 21.25984 h -93.24492 v -21.25984 h -93.24492 v 21.25984 h -93.24493 v -21.25984 h -93.24493 v 21.25984 h -93.24492 v -21.25984 h -93.24492 v 21.25984 H 95.90765 V 480.00682 h 21.25984 V 386.7619 H 95.90765 v -93.24492 h 21.25984 v -53.3361 h 7.08662 V 197.6612 h -7.08662 l -3.3e-4,2.61007 -21.25951,7.8e-4 v -93.24493 h 21.25984 V 13.7822 H 95.90765 v -93.24492 h 21.25984 v -93.24492 H 95.90765 v -93.24493 h 21.25984 v -93.24488 H 95.90765 v -93.24493 h 21.25984 V -545.6873 H 95.90765 v -93.24492 h 21.25984 v -93.24493 H 95.90765 v -93.24492 h 21.25984 v -93.24492 H 95.90765 v -93.24491 h 21.25984 v -93.2449 H 95.90765 v -114.5048 h 114.50476 v 21.2598 h 93.24492 v -21.2598 h 93.24492 v 21.2598 h 93.24493 v -21.2598 h 93.24493 v 21.2598 h 93.24492 v -21.2598 h 93.24492 v 21.2598 h 93.24493 v -21.2598 h 93.24492 v 21.2598 h 93.2449 v -21.2598 h 93.2449 v 21.2598 h 93.2449 v -21.2598 h 93.245 v 21.2598 h 93.2449 v -21.2598 h 93.2449 v 21.2598 h 93.2449 v -21.2598 h 93.2449 v 21.2598 h 93.245 v -21.2598 m 0,21.2598 v -21.2598 h 93.2449 v 21.2598 h 93.245 v -21.2598 h 114.5047 v 114.5048 h -21.2598 v 93.2449 h 21.2598 v 93.24491 h -21.2598 v 93.24492 h 21.2598 v 93.24492 h -21.2598 v 93.24493 h 21.2598 v 93.24492 h -21.2598 v 93.24492 h 21.2598 v 93.24493 h -21.2598 v 93.24488 h 21.2598 v 93.24492 h -21.2598 v 93.24493 h 21.2598 V 13.7822 h -21.2598 v 93.24492 h 21.2598 v 93.24493 h -21.2598 v 93.24493 h 21.2598 v 93.24492 h -21.2598 v 93.24492 h 21.2598 V 594.51158 H 1982.066 v -21.25984 h -93.245 v 21.25984 h -93.2449 v -21.25984" />
    <path
       id="path1263"
       style="fill:none;stroke:#0000ff;stroke-width:0.35433072;stroke-miterlimit:4;stroke-dasharray:none"
       d="m 559.42815,151.89352 c 0,-1.46767 -1.18981,-2.65748 -2.65748,-2.65748 -1.46767,0 -2.65748,1.18981 -2.65748,2.65748 0,1.46771 1.18981,2.65749 2.65748,2.65749 1.46767,0 2.65748,-1.18978 2.65748,-2.65749 z M 1504.31,-438.65769 c 0,-1.46771 -1.1898,-2.65748 -2.6575,-2.65748 -1.4677,0 -2.6575,1.18977 -2.6575,2.65748 0,1.46767 1.1898,2.65748 2.6575,2.65748 1.4677,0 2.6575,-1.18981 2.6575,-2.65748 z m -708.66137,236.22048 c 0,-1.46771 -1.18977,-2.65748 -2.65748,-2.65748 -1.46767,0 -2.65748,1.18977 -2.65748,2.65748 0,1.46767 1.18981,2.65748 2.65748,2.65748 1.46771,0 2.65748,-1.18981 2.65748,-2.65748 z m 354.33067,-354.33067 c 0,-1.46767 -1.1898,-2.65748 -2.6575,-2.65748 -1.4677,0 -2.6575,1.18981 -2.6575,2.65748 0,1.46771 1.1898,2.65749 2.6575,2.65749 1.4677,0 2.6575,-1.18978 2.6575,-2.65749 z m 236.2205,118.11019 c 0,-1.46771 -1.1898,-2.65748 -2.6575,-2.65748 -1.4677,0 -2.6575,1.18977 -2.6575,2.65748 0,1.46767 1.1898,2.65748 2.6575,2.65748 1.4677,0 2.6575,-1.18981 2.6575,-2.65748 z m -963.18897,-529.4291 v -177.16541 h 53.14961 v 177.16541 z M 1622.4202,33.783275 c 0,-1.46768 -1.1898,-2.65748 -2.6574,-2.65748 -1.4677,0 -2.6575,1.1898 -2.6575,2.65748 0,1.46767 1.1898,2.65748 2.6575,2.65748 1.4676,0 2.6574,-1.18981 2.6574,-2.65748 z m 236.2205,0 c 0,-1.46768 -1.1898,-2.65748 -2.6575,-2.65748 -1.4677,0 -2.6575,1.1898 -2.6575,2.65748 0,1.46767 1.1898,2.65748 2.6575,2.65748 1.4677,0 2.6575,-1.18981 2.6575,-2.65748 z m 0,-236.220485 c 0,-1.46771 -1.1898,-2.65748 -2.6575,-2.65748 -1.4677,0 -2.6575,1.18977 -2.6575,2.65748 0,1.46767 1.1898,2.65748 2.6575,2.65748 1.4677,0 2.6575,-1.18981 2.6575,-2.65748 z m 43.7008,678.24803 c 0,-9.78458 -7.932,-17.71654 -17.7166,-17.71654 -9.7845,0 -17.7165,7.93196 -17.7165,17.71654 0,9.78457 7.932,17.71653 17.7165,17.71653 9.7846,0 17.7166,-7.93196 17.7166,-17.71653 z m -161.811,-914.46851 c 0,-1.46771 -1.1898,-2.65748 -2.6575,-2.65748 -1.4677,0 -2.6575,1.18977 -2.6575,2.65748 0,1.46767 1.1898,2.65748 2.6575,2.65748 1.4677,0 2.6575,-1.18981 2.6575,-2.65748 z m 118.1102,-236.22044 c 0,-1.46768 -1.1898,-2.65748 -2.6575,-2.65748 -1.4677,0 -2.6575,1.1898 -2.6575,2.65748 0,1.46767 1.1898,2.65748 2.6575,2.65748 1.4677,0 2.6575,-1.18981 2.6575,-2.65748 z m -118.1102,118.11025 c 0,-1.46767 -1.1898,-2.65748 -2.6575,-2.65748 -1.4677,0 -2.6575,1.18981 -2.6575,2.65748 0,1.46771 1.1898,2.65749 2.6575,2.65749 1.4677,0 2.6575,-1.18978 2.6575,-2.65749 z m -24.2126,-411.31891 h 53.1496 v -177.16541 h -53.1496 z m 186.0236,-132.87401 c 0,-9.7846 -7.932,-17.7166 -17.7166,-17.7166 -9.7845,0 -17.7165,7.932 -17.7165,17.7166 0,9.7845 7.932,17.7165 17.7165,17.7165 9.7846,0 17.7166,-7.932 17.7166,-17.7165 z m -1576.77161,0 c 0,-9.7846 -7.93196,-17.7166 -17.71654,-17.7166 -9.78457,0 -17.71653,7.932 -17.71653,17.7166 0,9.7845 7.93196,17.7165 17.71653,17.7165 9.78458,0 17.71654,-7.932 17.71654,-17.7165 z m 0,1576.77162 c 0,-9.78458 -7.93196,-17.71654 -17.71654,-17.71654 -9.78457,0 -17.71653,7.93196 -17.71653,17.71654 0,9.78457 7.93196,17.71653 17.71653,17.71653 9.78458,0 17.71654,-7.93196 17.71654,-17.71653 z m 97.44094,44.29133 V 342.9368 h 53.14961 V 520.10215 Z M 1716.3179,342.9368 v 177.16535 h 53.1496 V 342.9368 Z M 323.20768,-792.98839 c 0,-1.46771 -1.18979,-2.65748 -2.65748,-2.65748 -1.46769,0 -2.65748,1.18977 -2.65748,2.65748 0,1.46767 1.18979,2.65748 2.65748,2.65748 1.46769,0 2.65748,-1.18981 2.65748,-2.65748 z m 0,472.44096 c 0,-1.46768 -1.18979,-2.65748 -2.65748,-2.65748 -1.46769,0 -2.65748,1.1898 -2.65748,2.65748 0,1.46767 1.18979,2.65748 2.65748,2.65748 1.46769,0 2.65748,-1.18981 2.65748,-2.65748 z m 0,-118.11026 c 0,-1.46771 -1.18979,-2.65748 -2.65748,-2.65748 -1.46769,0 -2.65748,1.18977 -2.65748,2.65748 0,1.46767 1.18979,2.65748 2.65748,2.65748 1.46769,0 2.65748,-1.18981 2.65748,-2.65748 z m 0,-118.11019 c 0,-1.46767 -1.18979,-2.65748 -2.65748,-2.65748 -1.46769,0 -2.65748,1.18981 -2.65748,2.65748 0,1.46771 1.18979,2.65749 2.65748,2.65749 1.46769,0 2.65748,-1.18978 2.65748,-2.65749 z m 0,-118.11025 c 0,-1.46768 -1.18979,-2.65748 -2.65748,-2.65748 -1.46769,0 -2.65748,1.1898 -2.65748,2.65748 0,1.46767 1.18979,2.65748 2.65748,2.65748 1.46769,0 2.65748,-1.18981 2.65748,-2.65748 z m 0,472.44092 c 0,-1.46771 -1.18979,-2.65748 -2.65748,-2.65748 -1.46769,0 -2.65748,1.18977 -2.65748,2.65748 0,1.46767 1.18979,2.65748 2.65748,2.65748 1.46769,0 2.65748,-1.18981 2.65748,-2.65748 z m 0,236.220485 c 0,-1.46768 -1.18979,-2.65748 -2.65748,-2.65748 -1.46769,0 -2.65748,1.1898 -2.65748,2.65748 0,1.46767 1.18979,2.65748 2.65748,2.65748 1.46769,0 2.65748,-1.18981 2.65748,-2.65748 z m 0,-118.11022 c 0,-1.46768 -1.18979,-2.65748 -2.65748,-2.65748 -1.46769,0 -2.65748,1.1898 -2.65748,2.65748 0,1.46771 1.18979,2.65748 2.65748,2.65748 1.46769,0 2.65748,-1.18977 2.65748,-2.65748 z m 0,354.330675 c 0,-1.46769 -1.18979,-2.65748 -2.65748,-2.65748 -1.46769,0 -2.65748,1.18979 -2.65748,2.65748 0,1.46768 1.18979,2.65748 2.65748,2.65748 1.46769,0 2.65748,-1.1898 2.65748,-2.65748 z m 0,-118.11021 c 0,-1.46767 -1.18979,-2.65748 -2.65748,-2.65748 -1.46769,0 -2.65748,1.18981 -2.65748,2.65748 0,1.46771 1.18979,2.65749 2.65748,2.65749 1.46769,0 2.65748,-1.18978 2.65748,-2.65749 z m 118.11023,-944.88191 c 0,-1.46771 -1.18979,-2.65748 -2.65748,-2.65748 -1.46769,0 -2.65748,1.18977 -2.65748,2.65748 0,1.46767 1.18979,2.65748 2.65748,2.65748 1.46769,0 2.65748,-1.18981 2.65748,-2.65748 z m 118.11024,0 c 0,-1.46771 -1.18981,-2.65748 -2.65748,-2.65748 -1.46767,0 -2.65748,1.18977 -2.65748,2.65748 0,1.46767 1.18981,2.65748 2.65748,2.65748 1.46767,0 2.65748,-1.18981 2.65748,-2.65748 z m 0,236.22051 c 0,-1.46767 -1.18981,-2.65748 -2.65748,-2.65748 -1.46767,0 -2.65748,1.18981 -2.65748,2.65748 0,1.46771 1.18981,2.65749 2.65748,2.65749 1.46767,0 2.65748,-1.18978 2.65748,-2.65749 z m -118.11024,0 c 0,-1.46767 -1.18979,-2.65748 -2.65748,-2.65748 -1.46769,0 -2.65748,1.18981 -2.65748,2.65748 0,1.46771 1.18979,2.65749 2.65748,2.65749 1.46769,0 2.65748,-1.18978 2.65748,-2.65749 z m 0,-118.11025 c 0,-1.46768 -1.18979,-2.65748 -2.65748,-2.65748 -1.46769,0 -2.65748,1.1898 -2.65748,2.65748 0,1.46767 1.18979,2.65748 2.65748,2.65748 1.46769,0 2.65748,-1.18981 2.65748,-2.65748 z m 118.11024,0 c 0,-1.46768 -1.18981,-2.65748 -2.65748,-2.65748 -1.46767,0 -2.65748,1.1898 -2.65748,2.65748 0,1.46767 1.18981,2.65748 2.65748,2.65748 1.46767,0 2.65748,-1.18981 2.65748,-2.65748 z m -118.11024,354.3307 c 0,-1.46768 -1.18979,-2.65748 -2.65748,-2.65748 -1.46769,0 -2.65748,1.1898 -2.65748,2.65748 0,1.46767 1.18979,2.65748 2.65748,2.65748 1.46769,0 2.65748,-1.18981 2.65748,-2.65748 z m 118.11024,0 c 0,-1.46768 -1.18981,-2.65748 -2.65748,-2.65748 -1.46767,0 -2.65748,1.1898 -2.65748,2.65748 0,1.46767 1.18981,2.65748 2.65748,2.65748 1.46767,0 2.65748,-1.18981 2.65748,-2.65748 z M 441.31791,-438.65769 c 0,-1.46771 -1.18979,-2.65748 -2.65748,-2.65748 -1.46769,0 -2.65748,1.18977 -2.65748,2.65748 0,1.46767 1.18979,2.65748 2.65748,2.65748 1.46769,0 2.65748,-1.18981 2.65748,-2.65748 z m 118.11024,0 c 0,-1.46771 -1.18981,-2.65748 -2.65748,-2.65748 -1.46767,0 -2.65748,1.18977 -2.65748,2.65748 0,1.46767 1.18981,2.65748 2.65748,2.65748 1.46767,0 2.65748,-1.18981 2.65748,-2.65748 z M 441.31791,151.89352 c 0,-1.46767 -1.18979,-2.65748 -2.65748,-2.65748 -1.46769,0 -2.65748,1.18981 -2.65748,2.65748 0,1.46771 1.18979,2.65749 2.65748,2.65749 1.46769,0 2.65748,-1.18978 2.65748,-2.65749 z m 0,118.11021 c 0,-1.46769 -1.18979,-2.65748 -2.65748,-2.65748 -1.46769,0 -2.65748,1.18979 -2.65748,2.65748 0,1.46768 1.18979,2.65748 2.65748,2.65748 1.46769,0 2.65748,-1.1898 2.65748,-2.65748 z m 118.11024,0 c 0,-1.46769 -1.18981,-2.65748 -2.65748,-2.65748 -1.46767,0 -2.65748,1.18979 -2.65748,2.65748 0,1.46768 1.18981,2.65748 2.65748,2.65748 1.46767,0 2.65748,-1.1898 2.65748,-2.65748 z m 0,-236.220455 c 0,-1.46768 -1.18981,-2.65748 -2.65748,-2.65748 -1.46767,0 -2.65748,1.1898 -2.65748,2.65748 0,1.46767 1.18981,2.65748 2.65748,2.65748 1.46767,0 2.65748,-1.18981 2.65748,-2.65748 z m -118.11024,0 c 0,-1.46768 -1.18979,-2.65748 -2.65748,-2.65748 -1.46769,0 -2.65748,1.1898 -2.65748,2.65748 0,1.46767 1.18979,2.65748 2.65748,2.65748 1.46769,0 2.65748,-1.18981 2.65748,-2.65748 z m 0,-118.11022 c 0,-1.46768 -1.18979,-2.65748 -2.65748,-2.65748 -1.46769,0 -2.65748,1.1898 -2.65748,2.65748 0,1.46771 1.18979,2.65748 2.65748,2.65748 1.46769,0 2.65748,-1.18977 2.65748,-2.65748 z m 118.11024,0 c 0,-1.46768 -1.18981,-2.65748 -2.65748,-2.65748 -1.46767,0 -2.65748,1.1898 -2.65748,2.65748 0,1.46771 1.18981,2.65748 2.65748,2.65748 1.46767,0 2.65748,-1.18977 2.65748,-2.65748 z m 0,-118.110265 c 0,-1.46771 -1.18981,-2.65748 -2.65748,-2.65748 -1.46767,0 -2.65748,1.18977 -2.65748,2.65748 0,1.46767 1.18981,2.65748 2.65748,2.65748 1.46767,0 2.65748,-1.18981 2.65748,-2.65748 z m -118.11024,0 c 0,-1.46771 -1.18979,-2.65748 -2.65748,-2.65748 -1.46769,0 -2.65748,1.18977 -2.65748,2.65748 0,1.46767 1.18979,2.65748 2.65748,2.65748 1.46769,0 2.65748,-1.18981 2.65748,-2.65748 z M 1622.4202,-792.98839 c 0,-1.46771 -1.1898,-2.65748 -2.6574,-2.65748 -1.4677,0 -2.6575,1.18977 -2.6575,2.65748 0,1.46767 1.1898,2.65748 2.6575,2.65748 1.4676,0 2.6574,-1.18981 2.6574,-2.65748 z m 118.1103,0 c 0,-1.46771 -1.1898,-2.65748 -2.6575,-2.65748 -1.4677,0 -2.6575,1.18977 -2.6575,2.65748 0,1.46767 1.1898,2.65748 2.6575,2.65748 1.4677,0 2.6575,-1.18981 2.6575,-2.65748 z m 118.1102,0 c 0,-1.46771 -1.1898,-2.65748 -2.6575,-2.65748 -1.4677,0 -2.6575,1.18977 -2.6575,2.65748 0,1.46767 1.1898,2.65748 2.6575,2.65748 1.4677,0 2.6575,-1.18981 2.6575,-2.65748 z m -826.7716,0 c 0,-1.46771 -1.1899,-2.65748 -2.6575,-2.65748 -1.4677,0 -2.6575,1.18977 -2.6575,2.65748 0,1.46767 1.1898,2.65748 2.6575,2.65748 1.4676,0 2.6575,-1.18981 2.6575,-2.65748 z m -118.11025,0 c 0,-1.46771 -1.18981,-2.65748 -2.65748,-2.65748 -1.46767,0 -2.65748,1.18977 -2.65748,2.65748 0,1.46767 1.18981,2.65748 2.65748,2.65748 1.46767,0 2.65748,-1.18981 2.65748,-2.65748 z m -118.11022,0 c 0,-1.46771 -1.18977,-2.65748 -2.65748,-2.65748 -1.46767,0 -2.65748,1.18977 -2.65748,2.65748 0,1.46767 1.18981,2.65748 2.65748,2.65748 1.46771,0 2.65748,-1.18981 2.65748,-2.65748 z m -118.11026,0 c 0,-1.46771 -1.1898,-2.65748 -2.65748,-2.65748 -1.46771,0 -2.65748,1.18977 -2.65748,2.65748 0,1.46767 1.18977,2.65748 2.65748,2.65748 1.46768,0 2.65748,-1.18981 2.65748,-2.65748 z m 590.55113,0 c 0,-1.46771 -1.1898,-2.65748 -2.6574,-2.65748 -1.4677,0 -2.6575,1.18977 -2.6575,2.65748 0,1.46767 1.1898,2.65748 2.6575,2.65748 1.4676,0 2.6574,-1.18981 2.6574,-2.65748 z m -118.1102,0 c 0,-1.46771 -1.1898,-2.65748 -2.6575,-2.65748 -1.4677,0 -2.6575,1.18977 -2.6575,2.65748 0,1.46767 1.1898,2.65748 2.6575,2.65748 1.4677,0 2.6575,-1.18981 2.6575,-2.65748 z m 236.2205,0 c 0,-1.46771 -1.1898,-2.65748 -2.6575,-2.65748 -1.4677,0 -2.6575,1.18977 -2.6575,2.65748 0,1.46767 1.1898,2.65748 2.6575,2.65748 1.4677,0 2.6575,-1.18981 2.6575,-2.65748 z m 118.1102,0 c 0,-1.46771 -1.1898,-2.65748 -2.6575,-2.65748 -1.4677,0 -2.6575,1.18977 -2.6575,2.65748 0,1.46767 1.1898,2.65748 2.6575,2.65748 1.4677,0 2.6575,-1.18981 2.6575,-2.65748 z m -826.77163,118.11026 c 0,-1.46768 -1.1898,-2.65748 -2.65748,-2.65748 -1.46771,0 -2.65748,1.1898 -2.65748,2.65748 0,1.46767 1.18977,2.65748 2.65748,2.65748 1.46768,0 2.65748,-1.18981 2.65748,-2.65748 z m 118.11026,0 c 0,-1.46768 -1.18977,-2.65748 -2.65748,-2.65748 -1.46767,0 -2.65748,1.1898 -2.65748,2.65748 0,1.46767 1.18981,2.65748 2.65748,2.65748 1.46771,0 2.65748,-1.18981 2.65748,-2.65748 z m 944.88187,0 c 0,-1.46768 -1.1898,-2.65748 -2.6575,-2.65748 -1.4677,0 -2.6575,1.1898 -2.6575,2.65748 0,1.46767 1.1898,2.65748 2.6575,2.65748 1.4677,0 2.6575,-1.18981 2.6575,-2.65748 z m -118.1103,0 c 0,-1.46768 -1.1898,-2.65748 -2.6574,-2.65748 -1.4677,0 -2.6575,1.1898 -2.6575,2.65748 0,1.46767 1.1898,2.65748 2.6575,2.65748 1.4676,0 2.6574,-1.18981 2.6574,-2.65748 z m -118.1102,0 c 0,-1.46768 -1.1898,-2.65748 -2.6575,-2.65748 -1.4677,0 -2.6575,1.1898 -2.6575,2.65748 0,1.46767 1.1898,2.65748 2.6575,2.65748 1.4677,0 2.6575,-1.18981 2.6575,-2.65748 z m -236.2205,0 c 0,-1.46768 -1.1898,-2.65748 -2.6574,-2.65748 -1.4677,0 -2.6575,1.1898 -2.6575,2.65748 0,1.46767 1.1898,2.65748 2.6575,2.65748 1.4676,0 2.6574,-1.18981 2.6574,-2.65748 z m 118.1103,0 c 0,-1.46768 -1.1898,-2.65748 -2.6575,-2.65748 -1.4677,0 -2.6575,1.1898 -2.6575,2.65748 0,1.46767 1.1898,2.65748 2.6575,2.65748 1.4677,0 2.6575,-1.18981 2.6575,-2.65748 z m -236.2205,0 c 0,-1.46768 -1.1898,-2.65748 -2.6575,-2.65748 -1.4677,0 -2.6575,1.1898 -2.6575,2.65748 0,1.46767 1.1898,2.65748 2.6575,2.65748 1.4677,0 2.6575,-1.18981 2.6575,-2.65748 z m -118.1102,0 c 0,-1.46768 -1.1899,-2.65748 -2.6575,-2.65748 -1.4677,0 -2.6575,1.1898 -2.6575,2.65748 0,1.46767 1.1898,2.65748 2.6575,2.65748 1.4676,0 2.6575,-1.18981 2.6575,-2.65748 z m -118.11025,0 c 0,-1.46768 -1.18981,-2.65748 -2.65748,-2.65748 -1.46767,0 -2.65748,1.1898 -2.65748,2.65748 0,1.46767 1.18981,2.65748 2.65748,2.65748 1.46767,0 2.65748,-1.18981 2.65748,-2.65748 z m 944.88185,118.11025 c 0,-1.46767 -1.1898,-2.65748 -2.6575,-2.65748 -1.4677,0 -2.6575,1.18981 -2.6575,2.65748 0,1.46771 1.1898,2.65749 2.6575,2.65749 1.4677,0 2.6575,-1.18978 2.6575,-2.65749 z m 0,118.11019 c 0,-1.46771 -1.1898,-2.65748 -2.6575,-2.65748 -1.4677,0 -2.6575,1.18977 -2.6575,2.65748 0,1.46767 1.1898,2.65748 2.6575,2.65748 1.4677,0 2.6575,-1.18981 2.6575,-2.65748 z m 0,354.330745 c 0,-1.46768 -1.1898,-2.65748 -2.6575,-2.65748 -1.4677,0 -2.6575,1.1898 -2.6575,2.65748 0,1.46771 1.1898,2.65748 2.6575,2.65748 1.4677,0 2.6575,-1.18977 2.6575,-2.65748 z m 0,-236.220485 c 0,-1.46768 -1.1898,-2.65748 -2.6575,-2.65748 -1.4677,0 -2.6575,1.1898 -2.6575,2.65748 0,1.46767 1.1898,2.65748 2.6575,2.65748 1.4677,0 2.6575,-1.18981 2.6575,-2.65748 z m 0,472.44095 c 0,-1.46767 -1.1898,-2.65748 -2.6575,-2.65748 -1.4677,0 -2.6575,1.18981 -2.6575,2.65748 0,1.46771 1.1898,2.65749 2.6575,2.65749 1.4677,0 2.6575,-1.18978 2.6575,-2.65749 z m 0,118.11021 c 0,-1.46769 -1.1898,-2.65748 -2.6575,-2.65748 -1.4677,0 -2.6575,1.18979 -2.6575,2.65748 0,1.46768 1.1898,2.65748 2.6575,2.65748 1.4677,0 2.6575,-1.1898 2.6575,-2.65748 z m -708.6614,0 c 0,-1.46769 -1.1898,-2.65748 -2.6575,-2.65748 -1.4677,0 -2.6575,1.18979 -2.6575,2.65748 0,1.46768 1.1898,2.65748 2.6575,2.65748 1.4677,0 2.6575,-1.1898 2.6575,-2.65748 z m 0,-354.330675 c 0,-1.46768 -1.1898,-2.65748 -2.6575,-2.65748 -1.4677,0 -2.6575,1.1898 -2.6575,2.65748 0,1.46771 1.1898,2.65748 2.6575,2.65748 1.4677,0 2.6575,-1.18977 2.6575,-2.65748 z m 118.1102,0 c 0,-1.46768 -1.1898,-2.65748 -2.6574,-2.65748 -1.4677,0 -2.6575,1.1898 -2.6575,2.65748 0,1.46771 1.1898,2.65748 2.6575,2.65748 1.4676,0 2.6574,-1.18977 2.6574,-2.65748 z m 0,118.11022 c 0,-1.46768 -1.1898,-2.65748 -2.6574,-2.65748 -1.4677,0 -2.6575,1.1898 -2.6575,2.65748 0,1.46767 1.1898,2.65748 2.6575,2.65748 1.4676,0 2.6574,-1.18981 2.6574,-2.65748 z m 0,118.110245 c 0,-1.46767 -1.1898,-2.65748 -2.6574,-2.65748 -1.4677,0 -2.6575,1.18981 -2.6575,2.65748 0,1.46771 1.1898,2.65749 2.6575,2.65749 1.4676,0 2.6574,-1.18978 2.6574,-2.65749 z m -354.33065,0 c 0,-1.46767 -1.18981,-2.65748 -2.65748,-2.65748 -1.46767,0 -2.65748,1.18981 -2.65748,2.65748 0,1.46771 1.18981,2.65749 2.65748,2.65749 1.46767,0 2.65748,-1.18978 2.65748,-2.65749 z m 0,-118.110245 c 0,-1.46768 -1.18981,-2.65748 -2.65748,-2.65748 -1.46767,0 -2.65748,1.1898 -2.65748,2.65748 0,1.46767 1.18981,2.65748 2.65748,2.65748 1.46767,0 2.65748,-1.18981 2.65748,-2.65748 z m 118.11025,0 c 0,-1.46768 -1.1899,-2.65748 -2.6575,-2.65748 -1.4677,0 -2.6575,1.1898 -2.6575,2.65748 0,1.46767 1.1898,2.65748 2.6575,2.65748 1.4676,0 2.6575,-1.18981 2.6575,-2.65748 z m 118.1102,0 c 0,-1.46768 -1.1898,-2.65748 -2.6575,-2.65748 -1.4677,0 -2.6575,1.1898 -2.6575,2.65748 0,1.46767 1.1898,2.65748 2.6575,2.65748 1.4677,0 2.6575,-1.18981 2.6575,-2.65748 z m 0,118.110245 c 0,-1.46767 -1.1898,-2.65748 -2.6575,-2.65748 -1.4677,0 -2.6575,1.18981 -2.6575,2.65748 0,1.46771 1.1898,2.65749 2.6575,2.65749 1.4677,0 2.6575,-1.18978 2.6575,-2.65749 z m 0,-354.33073 c 0,-1.46771 -1.1898,-2.65748 -2.6575,-2.65748 -1.4677,0 -2.6575,1.18977 -2.6575,2.65748 0,1.46767 1.1898,2.65748 2.6575,2.65748 1.4677,0 2.6575,-1.18981 2.6575,-2.65748 z m -118.1102,0 c 0,-1.46771 -1.1899,-2.65748 -2.6575,-2.65748 -1.4677,0 -2.6575,1.18977 -2.6575,2.65748 0,1.46767 1.1898,2.65748 2.6575,2.65748 1.4676,0 2.6575,-1.18981 2.6575,-2.65748 z m 236.2204,0 c 0,-1.46771 -1.1898,-2.65748 -2.6574,-2.65748 -1.4677,0 -2.6575,1.18977 -2.6575,2.65748 0,1.46767 1.1898,2.65748 2.6575,2.65748 1.4676,0 2.6574,-1.18981 2.6574,-2.65748 z M 913.75885,-556.76788 c 0,-1.46767 -1.18981,-2.65748 -2.65748,-2.65748 -1.46767,0 -2.65748,1.18981 -2.65748,2.65748 0,1.46771 1.18981,2.65749 2.65748,2.65749 1.46767,0 2.65748,-1.18978 2.65748,-2.65749 z m 118.11025,0 c 0,-1.46767 -1.1899,-2.65748 -2.6575,-2.65748 -1.4677,0 -2.6575,1.18981 -2.6575,2.65748 0,1.46771 1.1898,2.65749 2.6575,2.65749 1.4676,0 2.6575,-1.18978 2.6575,-2.65749 z m 0,118.11019 c 0,-1.46771 -1.1899,-2.65748 -2.6575,-2.65748 -1.4677,0 -2.6575,1.18977 -2.6575,2.65748 0,1.46767 1.1898,2.65748 2.6575,2.65748 1.4676,0 2.6575,-1.18981 2.6575,-2.65748 z m -118.11025,0 c 0,-1.46771 -1.18981,-2.65748 -2.65748,-2.65748 -1.46767,0 -2.65748,1.18977 -2.65748,2.65748 0,1.46767 1.18981,2.65748 2.65748,2.65748 1.46767,0 2.65748,-1.18981 2.65748,-2.65748 z m 0,118.11026 c 0,-1.46768 -1.18981,-2.65748 -2.65748,-2.65748 -1.46767,0 -2.65748,1.1898 -2.65748,2.65748 0,1.46767 1.18981,2.65748 2.65748,2.65748 1.46767,0 2.65748,-1.18981 2.65748,-2.65748 z m 354.33065,0 c 0,-1.46768 -1.1898,-2.65748 -2.6574,-2.65748 -1.4677,0 -2.6575,1.1898 -2.6575,2.65748 0,1.46767 1.1898,2.65748 2.6575,2.65748 1.4676,0 2.6574,-1.18981 2.6574,-2.65748 z m -118.1102,0 c 0,-1.46768 -1.1898,-2.65748 -2.6575,-2.65748 -1.4677,0 -2.6575,1.1898 -2.6575,2.65748 0,1.46767 1.1898,2.65748 2.6575,2.65748 1.4677,0 2.6575,-1.18981 2.6575,-2.65748 z m 118.1102,-118.11026 c 0,-1.46771 -1.1898,-2.65748 -2.6574,-2.65748 -1.4677,0 -2.6575,1.18977 -2.6575,2.65748 0,1.46767 1.1898,2.65748 2.6575,2.65748 1.4676,0 2.6574,-1.18981 2.6574,-2.65748 z m 0,-118.11019 c 0,-1.46767 -1.1898,-2.65748 -2.6574,-2.65748 -1.4677,0 -2.6575,1.18981 -2.6575,2.65748 0,1.46771 1.1898,2.65749 2.6575,2.65749 1.4676,0 2.6574,-1.18978 2.6574,-2.65749 z m -354.33065,354.33067 c 0,-1.46771 -1.18981,-2.65748 -2.65748,-2.65748 -1.46767,0 -2.65748,1.18977 -2.65748,2.65748 0,1.46767 1.18981,2.65748 2.65748,2.65748 1.46767,0 2.65748,-1.18981 2.65748,-2.65748 z m 0,118.110265 c 0,-1.46768 -1.18981,-2.65748 -2.65748,-2.65748 -1.46767,0 -2.65748,1.1898 -2.65748,2.65748 0,1.46771 1.18981,2.65748 2.65748,2.65748 1.46767,0 2.65748,-1.18977 2.65748,-2.65748 z M 1031.8691,151.89352 c 0,-1.46767 -1.1899,-2.65748 -2.6575,-2.65748 -1.4677,0 -2.6575,1.18981 -2.6575,2.65748 0,1.46771 1.1898,2.65749 2.6575,2.65749 1.4676,0 2.6575,-1.18978 2.6575,-2.65749 z M 913.75885,270.00373 c 0,-1.46769 -1.18981,-2.65748 -2.65748,-2.65748 -1.46767,0 -2.65748,1.18979 -2.65748,2.65748 0,1.46768 1.18981,2.65748 2.65748,2.65748 1.46767,0 2.65748,-1.1898 2.65748,-2.65748 z m 118.11025,0 c 0,-1.46769 -1.1899,-2.65748 -2.6575,-2.65748 -1.4677,0 -2.6575,1.18979 -2.6575,2.65748 0,1.46768 1.1898,2.65748 2.6575,2.65748 1.4676,0 2.6575,-1.1898 2.6575,-2.65748 z M 677.53837,-84.326945 c 0,-1.46768 -1.1898,-2.65748 -2.65748,-2.65748 -1.46771,0 -2.65748,1.1898 -2.65748,2.65748 0,1.46771 1.18977,2.65748 2.65748,2.65748 1.46768,0 2.65748,-1.18977 2.65748,-2.65748 z m 0,118.11022 c 0,-1.46768 -1.1898,-2.65748 -2.65748,-2.65748 -1.46771,0 -2.65748,1.1898 -2.65748,2.65748 0,1.46767 1.18977,2.65748 2.65748,2.65748 1.46768,0 2.65748,-1.18981 2.65748,-2.65748 z m 118.11026,0 c 0,-1.46768 -1.18977,-2.65748 -2.65748,-2.65748 -1.46767,0 -2.65748,1.1898 -2.65748,2.65748 0,1.46767 1.18981,2.65748 2.65748,2.65748 1.46771,0 2.65748,-1.18981 2.65748,-2.65748 z m 0,-118.11022 c 0,-1.46768 -1.18977,-2.65748 -2.65748,-2.65748 -1.46767,0 -2.65748,1.1898 -2.65748,2.65748 0,1.46771 1.18981,2.65748 2.65748,2.65748 1.46771,0 2.65748,-1.18977 2.65748,-2.65748 z M 677.53837,151.89352 c 0,-1.46767 -1.1898,-2.65748 -2.65748,-2.65748 -1.46771,0 -2.65748,1.18981 -2.65748,2.65748 0,1.46771 1.18977,2.65749 2.65748,2.65749 1.46768,0 2.65748,-1.18978 2.65748,-2.65749 z m 118.11026,0 c 0,-1.46767 -1.18977,-2.65748 -2.65748,-2.65748 -1.46767,0 -2.65748,1.18981 -2.65748,2.65748 0,1.46771 1.18981,2.65749 2.65748,2.65749 1.46771,0 2.65748,-1.18978 2.65748,-2.65749 z M 677.53837,270.00373 c 0,-1.46769 -1.1898,-2.65748 -2.65748,-2.65748 -1.46771,0 -2.65748,1.18979 -2.65748,2.65748 0,1.46768 1.18977,2.65748 2.65748,2.65748 1.46768,0 2.65748,-1.1898 2.65748,-2.65748 z m 118.11026,0 c 0,-1.46769 -1.18977,-2.65748 -2.65748,-2.65748 -1.46767,0 -2.65748,1.18979 -2.65748,2.65748 0,1.46768 1.18981,2.65748 2.65748,2.65748 1.46771,0 2.65748,-1.1898 2.65748,-2.65748 z M 677.53837,-202.43721 c 0,-1.46771 -1.1898,-2.65748 -2.65748,-2.65748 -1.46771,0 -2.65748,1.18977 -2.65748,2.65748 0,1.46767 1.18977,2.65748 2.65748,2.65748 1.46768,0 2.65748,-1.18981 2.65748,-2.65748 z m 118.11026,-354.33067 c 0,-1.46767 -1.18977,-2.65748 -2.65748,-2.65748 -1.46767,0 -2.65748,1.18981 -2.65748,2.65748 0,1.46771 1.18981,2.65749 2.65748,2.65749 1.46771,0 2.65748,-1.18978 2.65748,-2.65749 z m 0,236.22045 c 0,-1.46768 -1.18977,-2.65748 -2.65748,-2.65748 -1.46767,0 -2.65748,1.1898 -2.65748,2.65748 0,1.46767 1.18981,2.65748 2.65748,2.65748 1.46771,0 2.65748,-1.18981 2.65748,-2.65748 z m 0,-118.11026 c 0,-1.46771 -1.18977,-2.65748 -2.65748,-2.65748 -1.46767,0 -2.65748,1.18977 -2.65748,2.65748 0,1.46767 1.18981,2.65748 2.65748,2.65748 1.46771,0 2.65748,-1.18981 2.65748,-2.65748 z m -118.11026,0 c 0,-1.46771 -1.1898,-2.65748 -2.65748,-2.65748 -1.46771,0 -2.65748,1.18977 -2.65748,2.65748 0,1.46767 1.18977,2.65748 2.65748,2.65748 1.46768,0 2.65748,-1.18981 2.65748,-2.65748 z m 0,118.11026 c 0,-1.46768 -1.1898,-2.65748 -2.65748,-2.65748 -1.46771,0 -2.65748,1.1898 -2.65748,2.65748 0,1.46767 1.18977,2.65748 2.65748,2.65748 1.46768,0 2.65748,-1.18981 2.65748,-2.65748 z m 0,-236.22045 c 0,-1.46767 -1.1898,-2.65748 -2.65748,-2.65748 -1.46771,0 -2.65748,1.18981 -2.65748,2.65748 0,1.46771 1.18977,2.65749 2.65748,2.65749 1.46768,0 2.65748,-1.18978 2.65748,-2.65749 z m 826.77163,0 c 0,-1.46767 -1.1898,-2.65748 -2.6575,-2.65748 -1.4677,0 -2.6575,1.18981 -2.6575,2.65748 0,1.46771 1.1898,2.65749 2.6575,2.65749 1.4677,0 2.6575,-1.18978 2.6575,-2.65749 z m -118.1102,0 c 0,-1.46767 -1.1898,-2.65748 -2.6575,-2.65748 -1.4677,0 -2.6575,1.18981 -2.6575,2.65748 0,1.46771 1.1898,2.65749 2.6575,2.65749 1.4677,0 2.6575,-1.18978 2.6575,-2.65749 z m 236.2204,0 c 0,-1.46767 -1.1898,-2.65748 -2.6574,-2.65748 -1.4677,0 -2.6575,1.18981 -2.6575,2.65748 0,1.46771 1.1898,2.65749 2.6575,2.65749 1.4676,0 2.6574,-1.18978 2.6574,-2.65749 z m -472.4409,118.11019 c 0,-1.46771 -1.1898,-2.65748 -2.6575,-2.65748 -1.4677,0 -2.6575,1.18977 -2.6575,2.65748 0,1.46767 1.1898,2.65748 2.6575,2.65748 1.4677,0 2.6575,-1.18981 2.6575,-2.65748 z m 472.4409,0 c 0,-1.46771 -1.1898,-2.65748 -2.6574,-2.65748 -1.4677,0 -2.6575,1.18977 -2.6575,2.65748 0,1.46767 1.1898,2.65748 2.6575,2.65748 1.4676,0 2.6574,-1.18981 2.6574,-2.65748 z m 118.1103,118.11026 c 0,-1.46768 -1.1898,-2.65748 -2.6575,-2.65748 -1.4677,0 -2.6575,1.1898 -2.6575,2.65748 0,1.46767 1.1898,2.65748 2.6575,2.65748 1.4677,0 2.6575,-1.18981 2.6575,-2.65748 z m -118.1103,0 c 0,-1.46768 -1.1898,-2.65748 -2.6574,-2.65748 -1.4677,0 -2.6575,1.1898 -2.6575,2.65748 0,1.46767 1.1898,2.65748 2.6575,2.65748 1.4676,0 2.6574,-1.18981 2.6574,-2.65748 z m -590.5511,0 c 0,-1.46768 -1.1899,-2.65748 -2.6575,-2.65748 -1.4677,0 -2.6575,1.1898 -2.6575,2.65748 0,1.46767 1.1898,2.65748 2.6575,2.65748 1.4676,0 2.6575,-1.18981 2.6575,-2.65748 z m 354.3307,0 c 0,-1.46768 -1.1898,-2.65748 -2.6575,-2.65748 -1.4677,0 -2.6575,1.1898 -2.6575,2.65748 0,1.46767 1.1898,2.65748 2.6575,2.65748 1.4677,0 2.6575,-1.18981 2.6575,-2.65748 z m 118.1102,0 c 0,-1.46768 -1.1898,-2.65748 -2.6575,-2.65748 -1.4677,0 -2.6575,1.1898 -2.6575,2.65748 0,1.46767 1.1898,2.65748 2.6575,2.65748 1.4677,0 2.6575,-1.18981 2.6575,-2.65748 z m 236.2205,118.11022 c 0,-1.46771 -1.1898,-2.65748 -2.6575,-2.65748 -1.4677,0 -2.6575,1.18977 -2.6575,2.65748 0,1.46767 1.1898,2.65748 2.6575,2.65748 1.4677,0 2.6575,-1.18981 2.6575,-2.65748 z m -118.1103,0 c 0,-1.46771 -1.1898,-2.65748 -2.6574,-2.65748 -1.4677,0 -2.6575,1.18977 -2.6575,2.65748 0,1.46767 1.1898,2.65748 2.6575,2.65748 1.4676,0 2.6574,-1.18981 2.6574,-2.65748 z m -118.1102,0 c 0,-1.46771 -1.1898,-2.65748 -2.6575,-2.65748 -1.4677,0 -2.6575,1.18977 -2.6575,2.65748 0,1.46767 1.1898,2.65748 2.6575,2.65748 1.4677,0 2.6575,-1.18981 2.6575,-2.65748 z m -118.1102,0 c 0,-1.46771 -1.1898,-2.65748 -2.6575,-2.65748 -1.4677,0 -2.6575,1.18977 -2.6575,2.65748 0,1.46767 1.1898,2.65748 2.6575,2.65748 1.4677,0 2.6575,-1.18981 2.6575,-2.65748 z m 354.3307,354.33073 c 0,-1.46767 -1.1898,-2.65748 -2.6575,-2.65748 -1.4677,0 -2.6575,1.18981 -2.6575,2.65748 0,1.46771 1.1898,2.65749 2.6575,2.65749 1.4677,0 2.6575,-1.18978 2.6575,-2.65749 z m 0,118.11021 c 0,-1.46769 -1.1898,-2.65748 -2.6575,-2.65748 -1.4677,0 -2.6575,1.18979 -2.6575,2.65748 0,1.46768 1.1898,2.65748 2.6575,2.65748 1.4677,0 2.6575,-1.1898 2.6575,-2.65748 z M 1504.31,151.89352 c 0,-1.46767 -1.1898,-2.65748 -2.6575,-2.65748 -1.4677,0 -2.6575,1.18981 -2.6575,2.65748 0,1.46771 1.1898,2.65749 2.6575,2.65749 1.4677,0 2.6575,-1.18978 2.6575,-2.65749 z m 0,118.11021 c 0,-1.46769 -1.1898,-2.65748 -2.6575,-2.65748 -1.4677,0 -2.6575,1.18979 -2.6575,2.65748 0,1.46768 1.1898,2.65748 2.6575,2.65748 1.4677,0 2.6575,-1.1898 2.6575,-2.65748 z m 118.1102,-118.11021 c 0,-1.46767 -1.1898,-2.65748 -2.6574,-2.65748 -1.4677,0 -2.6575,1.18981 -2.6575,2.65748 0,1.46771 1.1898,2.65749 2.6575,2.65749 1.4676,0 2.6574,-1.18978 2.6574,-2.65749 z m 0,118.11021 c 0,-1.46769 -1.1898,-2.65748 -2.6574,-2.65748 -1.4677,0 -2.6575,1.18979 -2.6575,2.65748 0,1.46768 1.1898,2.65748 2.6575,2.65748 1.4676,0 2.6574,-1.1898 2.6574,-2.65748 z m -236.2204,0 c 0,-1.46769 -1.1898,-2.65748 -2.6575,-2.65748 -1.4677,0 -2.6575,1.18979 -2.6575,2.65748 0,1.46768 1.1898,2.65748 2.6575,2.65748 1.4677,0 2.6575,-1.1898 2.6575,-2.65748 z m 0,-118.11021 c 0,-1.46767 -1.1898,-2.65748 -2.6575,-2.65748 -1.4677,0 -2.6575,1.18981 -2.6575,2.65748 0,1.46771 1.1898,2.65749 2.6575,2.65749 1.4677,0 2.6575,-1.18978 2.6575,-2.65749 z m -118.1103,118.11021 c 0,-1.46769 -1.1898,-2.65748 -2.6574,-2.65748 -1.4677,0 -2.6575,1.18979 -2.6575,2.65748 0,1.46768 1.1898,2.65748 2.6575,2.65748 1.4676,0 2.6574,-1.1898 2.6574,-2.65748 z m 472.441,-354.330675 c 0,-1.46768 -1.1898,-2.65748 -2.6575,-2.65748 -1.4677,0 -2.6575,1.1898 -2.6575,2.65748 0,1.46771 1.1898,2.65748 2.6575,2.65748 1.4677,0 2.6575,-1.18977 2.6575,-2.65748 z m -354.3307,0 c 0,-1.46768 -1.1898,-2.65748 -2.6575,-2.65748 -1.4677,0 -2.6575,1.1898 -2.6575,2.65748 0,1.46771 1.1898,2.65748 2.6575,2.65748 1.4677,0 2.6575,-1.18977 2.6575,-2.65748 z m 236.2204,0 c 0,-1.46768 -1.1898,-2.65748 -2.6574,-2.65748 -1.4677,0 -2.6575,1.1898 -2.6575,2.65748 0,1.46771 1.1898,2.65748 2.6575,2.65748 1.4676,0 2.6574,-1.18977 2.6574,-2.65748 z m -118.1102,0 c 0,-1.46768 -1.1898,-2.65748 -2.6575,-2.65748 -1.4677,0 -2.6575,1.1898 -2.6575,2.65748 0,1.46771 1.1898,2.65748 2.6575,2.65748 1.4677,0 2.6575,-1.18977 2.6575,-2.65748 z m 0,118.11022 c 0,-1.46768 -1.1898,-2.65748 -2.6575,-2.65748 -1.4677,0 -2.6575,1.1898 -2.6575,2.65748 0,1.46767 1.1898,2.65748 2.6575,2.65748 1.4677,0 2.6575,-1.18981 2.6575,-2.65748 z m -118.1102,0 c 0,-1.46768 -1.1898,-2.65748 -2.6575,-2.65748 -1.4677,0 -2.6575,1.1898 -2.6575,2.65748 0,1.46767 1.1898,2.65748 2.6575,2.65748 1.4677,0 2.6575,-1.18981 2.6575,-2.65748 z m 354.3307,0 c 0,-1.46768 -1.1898,-2.65748 -2.6575,-2.65748 -1.4677,0 -2.6575,1.1898 -2.6575,2.65748 0,1.46767 1.1898,2.65748 2.6575,2.65748 1.4677,0 2.6575,-1.18981 2.6575,-2.65748 z m -708.6614,-118.11022 c 0,-1.46768 -1.1899,-2.65748 -2.6575,-2.65748 -1.4677,0 -2.6575,1.1898 -2.6575,2.65748 0,1.46771 1.1898,2.65748 2.6575,2.65748 1.4676,0 2.6575,-1.18977 2.6575,-2.65748 z"
       inkscape:connector-curvature="0" />
    <path
       id="path1419"
       style="fill:none;stroke:#0000ff;stroke-width:0.35433072;stroke-miterlimit:4;stroke-dasharray:none"
       d="m 931.50915,-1543.7634 v -21.2598 H 1046.014 m 1e-4,-115.8101 v 46.063 h -21.2599 v 46.063 h 21.2599 v 24.8031 m 116.9291,21.2598 h -46.063 v -21.2598 h -46.0631 v 21.2598 h -24.8031"
       inkscape:connector-curvature="0"
       sodipodi:nodetypes="ccccccccccccccc" />
    <path
       sodipodi:nodetypes="cccccc"
       inkscape:connector-curvature="0"
       d="m 2075.3109,-1336.5907 v 46.063 h 21.2598 v 46.063 h -21.2598 v 24.8031"
       style="fill:none;stroke:#0000ff;stroke-width:0.35433072;stroke-miterlimit:4;stroke-dasharray:none"
       id="path1424" />
    <path
       id="path1437"
       style="fill:none;stroke:#000000;stroke-width:1px;stroke-linecap:butt;stroke-linejoin:miter;stroke-opacity:1"
       d="m 118.2865,711.4407 h 1957.0244 m -1957.02439,4e-5 v -46.063 H 97.026706 v -46.063 h 21.259804 v -24.8031 M 2075.3109,711.44069 v -46.063 h 21.2598 v -46.063 h -21.2598 v -24.8031" />
  </g>
</svg>
